<svg width="14" height="17" viewBox="0 0 14 17" fill="none" xmlns="http://www.w3.org/2000/svg">
<path d="M12.3635 13.692L12.3287 13.6552C12.5141 13.4795 12.6008 13.2787 12.5875 13.0184C12.5138 11.5777 11.9946 10.3325 10.9803 9.29804C10.8076 9.1224 10.6781 8.91838 10.7293 8.64676M12.3635 13.692L10.7791 8.65613M12.3635 13.692L12.3287 13.6552C12.0082 13.9589 11.6204 14.1538 11.2092 14.3153C9.86924 14.8406 8.46277 14.9893 7.08374 15.0147L7.06575 15.0145M12.3635 13.692L7.06575 15.0145M10.7293 8.64676L10.7791 8.65613M10.7293 8.64676C10.7293 8.64677 10.7293 8.64679 10.7293 8.64681L10.7791 8.65613M10.7293 8.64676C10.7791 8.38063 10.9354 8.19079 11.2041 8.10948M10.7791 8.65613C10.8256 8.4073 10.9694 8.23344 11.2188 8.15796M11.2041 8.10948C11.2041 8.10948 11.2041 8.10948 11.2041 8.10949L11.2188 8.15796M11.2041 8.10948C11.2041 8.10947 11.2042 8.10947 11.2042 8.10947L11.2188 8.15796M11.2041 8.10948C11.3421 8.06751 11.4704 8.06729 11.5897 8.10349C11.7084 8.13954 11.8151 8.21072 11.9118 8.3068L11.9119 8.30683C12.5607 8.95223 13.0644 9.69592 13.4164 10.5387C13.7343 11.2997 13.8905 12.0946 13.9441 12.9156C14.0004 13.7763 13.6147 14.3986 12.9573 14.8842C12.1981 15.4454 11.3272 15.7504 10.4275 15.9676C8.80413 16.36 7.15955 16.4498 5.4999 16.2869L5.49989 16.2869C4.25288 16.1642 3.03119 15.9229 1.88702 15.3796C1.61478 15.2507 1.35306 15.0941 1.10607 14.9242C0.72676 14.6645 0.444229 14.358 0.267368 13.9966C0.0904271 13.635 0.0207811 13.2216 0.0625212 12.7505C0.214091 11.0394 0.857711 9.55974 2.0687 8.3296L2.06871 8.32959L11.2188 8.15796M7.06575 15.0145C5.95736 15.0036 4.91108 14.9148 3.88716 14.6595C3.17316 14.4814 2.48443 14.2541 1.87928 13.8291C1.69602 13.7002 1.56182 13.5566 1.48431 13.3918C1.40715 13.2277 1.38425 13.0384 1.43019 12.8141M7.06575 15.0145L1.43019 12.8141M1.43019 12.8141C1.44322 12.7506 1.44848 12.6862 1.45267 12.6244M1.43019 12.8141L1.45267 12.6244M1.45267 12.6244C1.4533 12.6151 1.4539 12.6059 1.4545 12.5968M1.45267 12.6244L1.4545 12.5968M1.4545 12.5968C1.45797 12.544 1.46129 12.4935 1.46836 12.4436L1.4545 12.5968ZM3.24497 8.84826C3.29785 8.55189 3.12084 8.28208 2.85894 8.16286L3.24497 8.84826C3.24497 8.84826 3.24497 8.84826 3.24497 8.84826ZM1.46837 12.4435C1.64305 11.2201 2.16625 10.1695 3.02858 9.27962L1.46837 12.4435Z" fill="#D6D6D6" stroke="#D6D6D6" stroke-width="0.1"/>
<path d="M2.56757 4.45226L2.56762 4.57401L2.56969 4.57195C2.63335 6.97519 4.58502 8.87764 7.01496 8.87816C9.42991 8.87869 11.4341 6.90567 11.4352 4.5241C11.4362 2.02125 9.48173 0.0502668 6.99824 0.0502668C4.55049 0.0502668 2.56651 2.02106 2.56757 4.45226ZM6.99916 7.52907C5.31108 7.53316 3.92283 6.1458 3.92077 4.45218C3.91953 2.79247 5.31574 1.39984 6.98419 1.39728C8.68446 1.39472 10.082 2.77544 10.0815 4.45587C10.0809 6.14814 8.70026 7.52497 6.99916 7.52907Z" fill="#D6D6D6" stroke="#D6D6D6" stroke-width="0.1"/>
</svg>
