<svg width="12" height="15" viewBox="0 0 12 15" fill="none" xmlns="http://www.w3.org/2000/svg">
<path d="M0.10522 6.18721C0.109 3.11469 2.17745 0.644148 4.99965 0.180981C8.15123 -0.335684 11.1507 1.86352 11.6454 5.08351C11.9157 6.84509 11.497 8.44424 10.3638 9.81302C9.01321 11.4449 7.63424 13.0523 6.26709 14.6698C6.0171 14.9657 5.81484 14.9695 5.56863 14.6784C4.18919 13.0475 2.80266 11.4233 1.43693 9.78073C0.541876 8.70354 0.122232 7.43646 0.10522 6.18721ZM5.91266 13.9516C5.97882 13.8755 6.03364 13.8148 6.08657 13.7521C7.30817 12.3077 8.53402 10.8671 9.749 9.41685C10.7608 8.20953 11.1672 6.8046 10.9323 5.23967C10.5013 2.37006 7.87951 0.437386 5.07054 0.934772C3.15378 1.27407 1.81121 2.40813 1.14913 4.2661C0.487058 6.12407 0.816914 7.86203 2.05789 9.38552C3.06069 10.6165 4.10271 11.8141 5.12772 13.0263C5.3848 13.3304 5.64282 13.634 5.91266 13.9521V13.9516Z" fill="#686868" stroke="#686868" stroke-width="0.2"/>
<path d="M8.45619 6.02779C8.4406 7.47416 7.29036 8.62846 5.88162 8.61063C4.48895 8.59328 3.35572 7.41391 3.37132 5.99887C3.38691 4.57129 4.54708 3.41603 5.94636 3.43482C7.33573 3.45362 8.47132 4.62672 8.45619 6.02779ZM7.72418 6.01959C7.72134 4.99301 6.91986 4.17994 5.91092 4.17898C4.90623 4.17849 4.10286 4.99928 4.1038 6.02538C4.10475 7.05003 4.90718 7.86503 5.91659 7.86551C6.92081 7.866 7.72702 7.04329 7.72418 6.01959Z" fill="#686868" stroke="#686868" stroke-width="0.2"/>
</svg>
