<svg width="14" height="16" viewBox="0 0 14 16" fill="none" xmlns="http://www.w3.org/2000/svg">
<g clip-path="url(#clip0_0_234)">
<path d="M2.44379 0C2.9983 0.0769531 3.45206 0.371484 3.91415 0.653125C6.89336 2.46836 9.87375 4.28125 12.8557 6.09258C13.6375 6.56719 14.0473 7.2457 13.9957 8.15625C13.9529 8.91641 13.5729 9.49805 12.918 9.89453C10.6353 11.2777 8.35023 12.6566 6.06437 14.0352C5.72325 14.241 5.3393 14.159 5.15208 13.852C4.96011 13.5367 5.0676 13.1773 5.42577 12.9605C7.67792 11.598 9.93087 10.2363 12.1842 8.87617C12.4404 8.72149 12.6459 8.53008 12.7121 8.22774C12.8081 7.78906 12.636 7.42617 12.206 7.16445C11.0482 6.45938 9.88962 5.75625 8.73141 5.05195C6.74263 3.84258 4.75464 2.63203 2.76547 1.42344C2.27878 1.12773 1.71674 1.22656 1.43115 1.67266C1.34508 1.80742 1.31969 1.98047 1.2717 2.13789C1.2598 2.17617 1.26813 2.2207 1.26813 2.2625C1.26813 6.07461 1.26813 9.88672 1.26813 13.6988C1.26813 14.2023 1.51048 14.5559 1.94124 14.702C2.1943 14.7879 2.42197 14.7344 2.65798 14.6285C2.80513 14.5625 2.97926 14.5098 3.13633 14.5207C3.41557 14.5402 3.61151 14.757 3.6607 15.0285C3.70552 15.2754 3.59525 15.543 3.35211 15.6602C3.09389 15.7844 2.81624 15.8684 2.54692 15.9695C2.5132 15.982 2.4779 15.9902 2.44299 16.0004H1.96781C1.74767 15.9344 1.51326 15.8961 1.30938 15.7969C0.442711 15.3754 0.00521087 14.6746 0.00402094 13.7215C0.000451127 10.7641 0.002831 7.80664 0.002831 4.84922C0.002831 3.97461 -0.00470526 3.09961 0.00481423 2.225C0.0159203 1.26016 0.477219 0.573438 1.36769 0.178125C1.55689 0.0941406 1.7679 0.0582031 1.96861 0H2.44379Z" fill="#686868"/>
</g>
<defs>
<clipPath id="clip0_0_234">
<rect width="14" height="16" fill="white"/>
</clipPath>
</defs>
</svg>
