<svg width="16" height="16" viewBox="0 0 16 16" fill="none" xmlns="http://www.w3.org/2000/svg">
<path d="M3.35038 0.000417477H3.65854C3.99097 0.13902 4.12963 0.390759 4.09836 0.751459C4.08643 0.889644 4.0963 1.0295 4.0963 1.17729H11.1042C11.1042 1.02908 11.1144 0.889226 11.1021 0.751042C11.0704 0.389924 11.2099 0.138602 11.5419 0.000417477H11.8501C12.1944 0.160311 12.3125 0.440856 12.2792 0.809488C12.2681 0.930974 12.2776 1.05455 12.2776 1.18814C12.5923 1.18814 12.8856 1.17019 13.1757 1.19398C13.4073 1.21277 13.6472 1.25118 13.8628 1.33509C14.691 1.65738 15.1958 2.43139 15.1983 3.35359C15.2016 4.45239 15.1991 5.55119 15.1991 6.64958C15.1991 9.03963 15.2008 11.4297 15.1983 13.8197C15.1971 15.0747 14.282 15.9994 13.0498 15.9998C9.4062 15.9998 5.763 16.0002 2.11939 15.9998C0.942701 15.9998 0.00752419 15.0784 0.00464419 13.8824C-0.00317295 10.3568 0.000529907 6.83118 0.00382134 3.306C0.00423276 2.80085 0.163044 2.34372 0.48725 1.95546C0.908553 1.45115 1.44588 1.18772 2.1017 1.18647C2.37159 1.18605 2.6419 1.18647 2.92085 1.18647C2.93772 0.730585 2.80771 0.23504 3.35038 0V0.000417477ZM2.92373 2.37378C2.66165 2.37378 2.41685 2.37378 2.17205 2.37378C1.56314 2.37419 1.18298 2.75535 1.18256 3.37572C1.18133 6.85414 1.18133 10.3326 1.18256 13.811C1.18256 14.4297 1.5656 14.8133 2.17287 14.8138C3.09653 14.8142 4.02019 14.8138 4.94384 14.8138C7.64323 14.8138 10.3426 14.8133 13.0416 14.8146C13.3901 14.8146 13.6686 14.6831 13.8685 14.3904C13.9973 14.2017 14.0195 13.988 14.0195 13.7655C14.0183 10.3184 14.0187 6.87126 14.0183 3.42415C14.0183 3.36695 14.0183 3.30934 14.0142 3.25257C13.9833 2.84845 13.7797 2.5654 13.4057 2.43389C13.0395 2.30531 12.6581 2.39799 12.2776 2.37419C12.2776 2.56581 12.2784 2.73239 12.2776 2.89896C12.2759 3.28513 12.0307 3.55941 11.6884 3.55983C11.3453 3.55983 11.1075 3.29097 11.1046 2.89813C11.1033 2.7278 11.1046 2.55747 11.1046 2.38672H4.09671C4.09671 2.53409 4.1 2.66893 4.09548 2.80336C4.09177 2.91691 4.0963 3.03548 4.06627 3.14319C3.99056 3.41329 3.71655 3.58989 3.45159 3.55732C3.15989 3.52184 2.93648 3.28054 2.92537 2.97787C2.91797 2.78165 2.92414 2.58544 2.92414 2.37419L2.92373 2.37378Z" fill="#686868"/>
<path d="M4.24758 11.2549C4.64666 11.2582 4.98074 11.6022 4.97745 12.0055C4.97375 12.4101 4.63515 12.7491 4.23688 12.7457C3.8378 12.7424 3.50495 12.3992 3.50783 11.9947C3.51071 11.5897 3.84891 11.2516 4.24717 11.2549H4.24758Z" fill="#686868"/>
<path d="M8.18501 9.03373C8.18625 9.44662 7.86287 9.77851 7.45843 9.77976C7.05523 9.78102 6.72485 9.45037 6.72074 9.04083C6.71663 8.63796 7.05112 8.2948 7.45103 8.29104C7.8497 8.2877 8.18378 8.62544 8.1846 9.03331L8.18501 9.03373Z" fill="#686868"/>
<path d="M4.24883 9.77982C3.84604 9.78233 3.51155 9.45043 3.50784 9.04381C3.50414 8.63886 3.83411 8.29736 4.23525 8.2911C4.63022 8.28484 4.97253 8.6255 4.97747 9.03004C4.9824 9.43415 4.64915 9.77732 4.24924 9.77982H4.24883Z" fill="#686868"/>
<path d="M8.18459 12.0039C8.18377 12.4126 7.85174 12.7483 7.45101 12.7462C7.05193 12.7441 6.71744 12.4009 6.72073 11.9972C6.72402 11.5902 7.05851 11.2537 7.45801 11.2554C7.85915 11.2575 8.18582 11.594 8.185 12.0043L8.18459 12.0039Z" fill="#686868"/>
<path d="M4.24484 6.81346C3.83876 6.81346 3.51003 6.48448 3.50879 6.07619C3.50756 5.6679 3.83588 5.33475 4.24155 5.3335C4.64557 5.33225 4.97718 5.66498 4.97842 6.07285C4.97965 6.47989 4.64968 6.81304 4.24484 6.81346Z" fill="#686868"/>
<path d="M9.93848 11.9988C9.93889 11.5864 10.2652 11.254 10.6679 11.2549C11.0716 11.2561 11.3962 11.5893 11.3953 12.0018C11.3945 12.4138 11.0678 12.7465 10.6651 12.7457C10.2631 12.7449 9.93807 12.4105 9.93848 11.9984V11.9988Z" fill="#686868"/>
<path d="M7.45188 6.81347C7.04662 6.81264 6.71542 6.47448 6.72077 6.06744C6.72653 5.66249 7.05073 5.33644 7.45023 5.33352C7.85754 5.33059 8.18463 5.65998 8.18504 6.07412C8.18504 6.48993 7.8633 6.81472 7.45188 6.81389V6.81347Z" fill="#686868"/>
<path d="M10.6565 6.81339C10.2479 6.81088 9.9336 6.48149 9.93853 6.06067C9.94306 5.65447 10.2664 5.33176 10.6684 5.33301C11.0761 5.33426 11.3983 5.66574 11.3954 6.08071C11.3925 6.49694 11.0704 6.81631 10.6565 6.8138V6.81339Z" fill="#686868"/>
<path d="M9.93848 9.03781C9.93848 8.62743 10.266 8.29094 10.6659 8.29053C11.067 8.29053 11.3949 8.62576 11.3953 9.03656C11.3953 9.4507 11.0736 9.77925 10.6671 9.77967C10.2606 9.77967 9.93848 9.45237 9.93848 9.03781Z" fill="#686868"/>
</svg>
