<svg width="1316" height="187" viewBox="0 0 1316 187" fill="none" xmlns="http://www.w3.org/2000/svg">
<mask id="mask0_0_48" style="mask-type:alpha" maskUnits="userSpaceOnUse" x="-64" y="-20" width="1380" height="207">
<rect x="-64" y="-20" width="1380" height="207" rx="20" fill="white"/>
</mask>
<g mask="url(#mask0_0_48)">
<path fill-rule="evenodd" clip-rule="evenodd" d="M0 220.084L0 2.91565L149.787 2.91565V48.6858L55.5666 48.6858L55.5666 88.5108L140.5 88.5108V134.385L55.5666 134.385L55.5666 220.084H0ZM53.6077 132.43L138.541 132.43V90.4657L53.6077 90.4657L53.6077 46.7309L147.828 46.7309V4.87052L1.95883 4.87052L1.95883 218.129H53.6077L53.6077 132.43ZM200.688 220.084H141.012L214.433 2.91565L286.007 2.91565L359.428 220.084H299.753L285.666 175.308L214.746 175.308L200.688 220.084ZM199.249 218.129H143.74L215.84 4.87052L284.6 4.87052L356.7 218.129H301.191L287.104 173.353L213.307 173.353L199.249 218.129ZM225.599 134.2L274.786 134.2L251.003 58.6018H249.333L225.599 134.2ZM228.265 132.246L272.118 132.246L250.169 62.4779L228.265 132.246ZM492.701 70.7614L492.539 68.9835C491.887 61.8247 489.022 56.4125 484.007 52.5476L483.985 52.5308C479.033 48.6021 471.774 46.4991 461.936 46.4991C455.412 46.4991 450.108 47.349 445.954 48.9683C441.759 50.6034 438.763 52.8003 436.808 55.4822L436.796 55.4996C434.826 58.1415 433.802 61.1777 433.74 64.6763L433.739 64.7013L433.738 64.7263C433.613 67.5965 434.174 70.0267 435.35 72.0886C436.642 74.2305 438.509 76.1761 441.012 77.9087C443.635 79.607 446.822 81.136 450.595 82.481C454.395 83.8354 458.692 85.0283 463.494 86.0551L463.517 86.0601L481.863 90.2214C481.866 90.2221 481.869 90.2227 481.872 90.2234C492.556 92.5389 502.02 95.635 510.246 99.5267C518.542 103.419 525.543 108.078 531.216 113.524C536.971 118.982 541.338 125.28 544.297 132.411C547.258 139.548 548.757 147.507 548.828 156.26L548.828 156.286C548.757 170.091 545.257 182.05 538.25 192.07C531.254 202.076 521.224 209.686 508.271 214.942C495.385 220.199 479.921 222.792 461.936 222.792C443.868 222.792 428.027 220.091 414.458 214.632C400.843 209.154 390.189 200.796 382.578 189.546C374.94 178.256 371.082 164.078 370.87 147.137L370.845 145.158H424.13L424.241 146.994C424.641 153.583 426.398 158.937 429.412 163.16C432.447 167.414 436.627 170.667 442.024 172.9C447.516 175.145 453.931 176.293 461.31 176.293C468.1 176.293 473.759 175.376 478.343 173.612L478.351 173.609C483.039 171.83 486.508 169.409 488.885 166.413C491.251 163.43 492.462 160.04 492.531 156.173C492.462 152.578 491.354 149.599 489.244 147.132L489.229 147.115C487.069 144.528 483.625 142.185 478.72 140.174L478.705 140.168L478.69 140.161C473.826 138.071 467.548 136.124 459.823 134.334L437.499 129.129C437.498 129.129 437.496 129.128 437.494 129.128C418.776 124.843 403.873 117.89 392.917 108.171L392.911 108.166C381.795 98.2328 376.33 84.8292 376.399 68.1837C376.329 54.6179 379.987 42.6511 387.412 32.3638C394.806 22.1186 405.012 14.1714 417.95 8.4957C430.898 2.81597 445.607 0 462.04 0C478.811 0 493.465 2.84752 505.948 8.61177C518.483 14.299 528.275 22.3327 535.246 32.7318C542.225 43.1434 545.764 55.1843 545.906 68.7861L545.927 70.7614H492.701ZM505.133 10.3894C492.96 4.76639 478.595 1.95487 462.04 1.95487C445.832 1.95487 431.398 4.73169 418.738 10.2853C406.078 15.8389 396.166 23.5793 389.001 33.5064C381.836 43.4335 378.289 54.9919 378.358 68.1818C378.289 84.3567 383.575 97.1994 394.218 106.71C404.861 116.151 419.434 122.989 437.937 127.224L460.266 132.43C468.057 134.235 474.457 136.214 479.465 138.366C484.543 140.448 488.299 142.947 490.734 145.863C493.168 148.709 494.421 152.146 494.49 156.172C494.421 160.476 493.064 164.294 490.421 167.626C487.777 170.958 483.986 173.562 479.048 175.436C474.178 177.31 468.266 178.248 461.31 178.248C453.727 178.248 447.05 177.067 441.276 174.707C435.572 172.347 431.085 168.876 427.816 164.294C424.547 159.712 422.703 153.985 422.286 147.113H372.828C372.836 147.769 372.85 148.42 372.87 149.067C373.341 164.854 377.118 177.983 384.201 188.452C391.575 199.351 401.905 207.473 415.191 212.819C428.477 218.164 444.058 220.837 461.936 220.837C479.743 220.837 494.942 218.268 507.533 213.131C520.193 207.994 529.897 200.601 536.644 190.951C543.391 181.302 546.8 169.744 546.869 156.276C546.8 147.737 545.339 140.032 542.487 133.159C539.635 126.287 535.427 120.212 529.862 114.936C524.366 109.66 517.549 105.113 509.411 101.295C501.342 97.4771 492.021 94.4226 481.447 92.1318L463.083 87.9665C458.214 86.9252 453.832 85.7104 449.936 84.322C446.041 82.9336 442.702 81.3369 439.92 79.532C437.207 77.6576 435.12 75.5056 433.659 73.0759C432.268 70.6462 431.642 67.8347 431.781 64.6413C431.851 60.7538 432.998 57.3175 435.224 54.3324C437.45 51.278 440.789 48.883 445.241 47.1474C449.693 45.4119 455.258 44.5442 461.936 44.5442C472.022 44.5442 479.778 46.6962 485.204 51.0003C490.699 55.2349 493.794 61.1703 494.49 68.8065H543.948C543.941 68.151 543.926 67.4994 543.903 66.8517C543.46 54.398 540.032 43.387 533.618 33.8188C526.871 23.7528 517.376 15.9431 505.133 10.3894ZM576.872 220.084V2.91565L632.439 2.91565V88.5108L712.725 88.5108V2.91565L768.187 2.91565V220.084H712.725V134.385H632.439V220.084L576.872 220.084ZM630.48 132.43H714.683V218.129H766.228V4.87052L714.683 4.87052V90.4657L630.48 90.4657V4.87052L578.831 4.87052V218.129L630.48 218.129V132.43ZM858.11 2.91565V220.084H802.544V2.91565L858.11 2.91565ZM903.904 172.012L903.899 172.003C894.732 155.336 890.198 135.14 890.198 111.5C890.198 87.7913 894.731 67.5604 903.899 50.8926L903.902 50.887C913.112 34.2727 925.577 21.606 941.293 12.9474C956.983 4.30378 974.599 0 994.098 0C1013.53 0 1031.11 4.30377 1046.79 12.9456C1062.58 21.6036 1075.08 34.2705 1084.29 50.887C1093.53 67.556 1098.1 87.789 1098.1 111.5C1098.1 135.211 1093.53 155.444 1084.29 172.113C1075.08 188.73 1062.58 201.396 1046.79 210.054C1031.11 218.696 1013.53 223 994.098 223C974.597 223 956.978 218.66 941.288 209.945C925.577 201.219 913.114 188.555 903.904 172.012ZM1045.85 208.341C1061.29 199.872 1073.54 187.48 1082.58 171.167C1091.62 154.853 1096.14 134.964 1096.14 111.5C1096.14 88.036 1091.62 68.1471 1082.58 51.8333C1073.54 35.5196 1061.29 23.128 1045.85 14.6588C1030.48 6.18951 1013.23 1.95487 994.098 1.95487C974.899 1.95487 957.613 6.18951 942.24 14.6588C926.867 23.128 914.659 35.5196 905.616 51.8333C896.643 68.1471 892.156 88.036 892.156 111.5C892.156 134.895 896.643 154.749 905.616 171.063C914.659 187.307 926.867 199.698 942.24 208.237C957.613 216.776 974.899 221.045 994.098 221.045C1013.23 221.045 1030.48 216.811 1045.85 208.341ZM1019.41 56.1649L1019.4 56.1601C1012.47 51.4847 1004.07 49.1023 994.098 49.1023C984.2 49.1023 975.793 51.4831 968.789 56.1649C961.791 60.843 956.347 67.7625 952.505 77.0446C948.732 86.325 946.807 97.7895 946.807 111.5C946.807 125.21 948.732 136.674 952.504 145.955C956.347 155.237 961.791 162.157 968.789 166.835C975.793 171.517 984.2 173.898 994.098 173.898C1004.07 173.898 1012.47 171.515 1019.4 166.84L1019.41 166.835C1026.4 162.158 1031.81 155.241 1035.58 145.961L1035.59 145.95C1039.43 136.672 1041.39 125.21 1041.39 111.5C1041.39 97.79 1039.43 86.328 1035.59 77.0502L1035.58 77.039C1031.81 67.7589 1026.4 60.8418 1019.41 56.1649ZM950.692 146.696C946.796 137.116 944.849 125.384 944.849 111.5C944.849 97.616 946.796 85.8839 950.692 76.3039C954.657 66.7239 960.326 59.4695 967.699 54.5407C975.073 49.6119 983.872 47.1474 994.098 47.1474C1004.39 47.1474 1013.19 49.6119 1020.5 54.5407C1027.87 59.4695 1033.5 66.7239 1037.4 76.3039C1041.36 85.8839 1043.35 97.616 1043.35 111.5C1043.35 125.384 1041.36 137.116 1037.4 146.696C1033.5 156.276 1027.87 163.53 1020.5 168.459C1013.19 173.388 1004.39 175.853 994.098 175.853C983.872 175.853 975.073 173.388 967.699 168.459C960.326 163.53 954.657 156.276 950.692 146.696ZM1316 2.91565V220.084H1269.19L1185.78 99.3631V220.084L1130.22 220.084V2.91565L1177.66 2.91565L1260.54 124.008V2.91565L1316 2.91565ZM1260.72 127.744L1176.62 4.87052L1132.17 4.87052V218.129L1183.82 218.129V95.0474H1185.18L1270.22 218.129H1314.04V4.87052L1262.5 4.87052V127.744H1260.72ZM856.151 4.87052L804.502 4.87052V218.129H856.151V4.87052Z" fill="#ECECEC"/>
</g>
</svg>
