<svg width="23" height="24" viewBox="0 0 23 24" fill="none" xmlns="http://www.w3.org/2000/svg">
<path d="M5.02557 0.000626216H5.48781C5.98646 0.20853 6.19444 0.586138 6.14754 1.12719C6.12964 1.33447 6.14445 1.54425 6.14445 1.76593H16.6562C16.6562 1.54362 16.6717 1.33384 16.6532 1.12656C16.6056 0.584886 16.8148 0.207904 17.3129 0.000626216H17.7751C18.2917 0.240467 18.4688 0.661284 18.4188 1.21423C18.4021 1.39646 18.4163 1.58182 18.4163 1.78221C18.8884 1.78221 19.3285 1.75528 19.7636 1.79098C20.111 1.81916 20.4708 1.87677 20.7942 2.00264C22.0365 2.48608 22.7937 3.64708 22.7974 5.03039C22.8024 6.67859 22.7987 8.32679 22.7987 9.97437C22.7987 13.5595 22.8011 17.1445 22.7974 20.7296C22.7956 22.612 21.4231 23.9991 19.5747 23.9997C14.1093 23.9997 8.6445 24.0003 3.17908 23.9997C1.41405 23.9997 0.0112863 22.6177 0.00696629 20.8236C-0.00475942 15.5352 0.00079486 10.2468 0.005732 4.959C0.00634914 4.20128 0.244566 3.51558 0.730875 2.9332C1.36283 2.17673 2.16882 1.78158 3.15254 1.77971C3.55739 1.77908 3.96285 1.77971 4.38127 1.77971C4.40658 1.09588 4.21156 0.35256 5.02557 0V0.000626216ZM4.38559 3.56066C3.99247 3.56066 3.62527 3.56066 3.25807 3.56066C2.3447 3.56129 1.77446 4.13302 1.77385 5.06358C1.77199 10.2812 1.77199 15.4988 1.77385 20.7165C1.77385 21.6445 2.34841 22.22 3.25931 22.2206C4.64479 22.2213 6.03028 22.2206 7.41577 22.2206C11.4648 22.2206 15.5139 22.22 19.5624 22.2219C20.0851 22.2219 20.5029 22.0246 20.8028 21.5857C20.996 21.3026 21.0293 20.982 21.0293 20.6482C21.0275 15.4776 21.0281 10.3069 21.0275 5.13622C21.0275 5.05043 21.0275 4.96401 21.0213 4.87885C20.975 4.27267 20.6695 3.8481 20.1085 3.65084C19.5593 3.45796 18.9872 3.59698 18.4163 3.56129C18.4163 3.84872 18.4176 4.09858 18.4163 4.34844C18.4139 4.92769 18.046 5.33912 17.5326 5.33974C17.0179 5.33974 16.6612 4.93646 16.6569 4.34719C16.655 4.09169 16.6569 3.8362 16.6569 3.58008H6.14507C6.14507 3.80113 6.15001 4.0034 6.14322 4.20504C6.13766 4.37537 6.14445 4.55322 6.0994 4.71478C5.98585 5.11994 5.57483 5.38483 5.17739 5.33599C4.73983 5.28276 4.40473 4.9208 4.38806 4.4668C4.37695 4.17248 4.38621 3.87815 4.38621 3.56129L4.38559 3.56066Z" fill="#B5B5B5"/>
<path d="M6.37137 16.8819C6.97 16.8869 7.47112 17.4029 7.46618 18.0078C7.46063 18.6146 6.95272 19.1231 6.35532 19.1181C5.7567 19.1131 5.25743 18.5983 5.26175 17.9915C5.26607 17.3841 5.77336 16.8769 6.37075 16.8819H6.37137Z" fill="#B5B5B5"/>
<path d="M12.2765 13.5506C12.2784 14.1699 11.7933 14.6678 11.1867 14.6696C10.5819 14.6715 10.0863 14.1756 10.0801 13.5612C10.074 12.9569 10.5757 12.4422 11.1756 12.4366C11.7736 12.4316 12.2747 12.9382 12.2759 13.55L12.2765 13.5506Z" fill="#B5B5B5"/>
<path d="M6.37422 14.6697C5.77003 14.6735 5.2683 14.1757 5.26274 13.5657C5.25719 12.9583 5.75214 12.446 6.35385 12.4367C6.94631 12.4273 7.45977 12.9382 7.46718 13.5451C7.47458 14.1512 6.9747 14.666 6.37483 14.6697H6.37422Z" fill="#B5B5B5"/>
<path d="M12.2769 18.0056C12.2756 18.6187 11.7776 19.1222 11.1765 19.119C10.5779 19.1159 10.0762 18.6012 10.0811 17.9956C10.086 17.385 10.5878 16.8803 11.187 16.8828C11.7887 16.886 12.2787 17.3907 12.2775 18.0063L12.2769 18.0056Z" fill="#B5B5B5"/>
<path d="M6.36677 10.2209C5.75765 10.2209 5.26455 9.72746 5.2627 9.11502C5.26085 8.50258 5.75333 8.00286 6.36183 8.00098C6.96787 7.9991 7.46528 8.4982 7.46713 9.11001C7.46899 9.72057 6.97404 10.2203 6.36677 10.2209Z" fill="#B5B5B5"/>
<path d="M14.9082 17.9978C14.9088 17.3791 15.3982 16.8806 16.0024 16.8818C16.6078 16.8837 17.0947 17.3834 17.0935 18.0021C17.0923 18.6202 16.6023 19.1193 15.9981 19.1181C15.3951 19.1168 14.9076 18.6152 14.9082 17.9971V17.9978Z" fill="#B5B5B5"/>
<path d="M11.1768 10.2209C10.569 10.2197 10.0722 9.71245 10.0802 9.10189C10.0888 8.49446 10.5751 8.00539 11.1744 8.00101C11.7853 7.99662 12.276 8.49071 12.2766 9.11191C12.2766 9.73562 11.794 10.2228 11.1768 10.2216V10.2209Z" fill="#B5B5B5"/>
<path d="M15.9852 10.2196C15.3724 10.2158 14.9009 9.72175 14.9083 9.09052C14.9151 8.48122 15.4002 7.99715 16.0031 7.99903C16.6147 8.00091 17.0979 8.49812 17.0936 9.12058C17.0893 9.74492 16.606 10.224 15.9852 10.2202V10.2196Z" fill="#B5B5B5"/>
<path d="M14.9072 13.5565C14.9072 12.9409 15.3985 12.4362 15.9983 12.4355C16.6 12.4355 17.0919 12.9384 17.0925 13.5546C17.0925 14.1758 16.6099 14.6686 16.0002 14.6693C15.3904 14.6693 14.9072 14.1783 14.9072 13.5565Z" fill="#B5B5B5"/>
</svg>
