<svg width="14" height="14" viewBox="0 0 14 14" fill="none" xmlns="http://www.w3.org/2000/svg">
<path d="M6.98726 6.40584C6.78314 6.34656 6.59888 6.31614 6.43527 6.24126C4.39884 5.31461 2.36401 4.38328 0.332355 3.44415C0.204483 3.38487 0.111558 3.25304 0.00195312 3.15554C0.111558 3.07286 0.209249 2.96678 0.331561 2.91062C2.32748 1.99021 4.32975 1.08072 6.32407 0.155632C6.76487 -0.0487304 7.17152 -0.0534105 7.61391 0.150952C9.60903 1.07526 11.6113 1.98397 13.608 2.90516C13.7399 2.966 13.8431 3.08534 13.9599 3.17816C13.8431 3.27176 13.7391 3.39345 13.6064 3.45507C11.5986 4.38172 9.58759 5.30213 7.5742 6.21786C7.38676 6.30288 7.17946 6.34578 6.98805 6.40662L6.98726 6.40584Z" fill="#686868"/>
<path d="M6.96068 13.9998C6.73989 13.9304 6.531 13.8883 6.34277 13.8025C4.354 12.8961 2.36762 11.9843 0.38441 11.0662C0.240653 10.9999 0.127078 10.8712 0 10.7714C0.125489 10.67 0.235888 10.5366 0.378056 10.4711C1.92443 9.76204 1.64725 9.74254 3.169 10.4422C4.24519 10.9375 5.32615 11.4227 6.39995 11.9227C6.80104 12.1099 7.17989 12.1013 7.5786 11.9164C8.91609 11.2955 10.2584 10.6864 11.5974 10.0694C11.9683 9.89854 12.3321 9.8884 12.7038 10.0662C13.0366 10.2254 13.3773 10.3673 13.7069 10.5311C13.8054 10.5795 13.8785 10.6762 13.9635 10.7511C13.8634 10.8439 13.78 10.9695 13.6617 11.0249C12.6133 11.5163 11.5585 11.996 10.5054 12.478C9.5356 12.9219 8.56822 13.3696 7.59448 13.8048C7.39434 13.8945 7.17275 13.9359 6.95989 13.9998H6.96068Z" fill="#686868"/>
<path d="M13.9833 7.03296C13.8753 7.09848 13.7728 7.17492 13.6585 7.22718C11.6379 8.15773 9.61502 9.08282 7.59607 10.0165C7.17036 10.2138 6.76848 10.2084 6.34277 10.011C4.33653 9.08126 2.32552 8.16319 0.318489 7.2342C0.198559 7.17882 0.105633 7.0665 0 6.97992C0.101662 6.89022 0.189822 6.77166 0.308164 6.71628C1.96335 5.94017 1.64248 5.96045 3.24048 6.68352C4.28411 7.15542 5.32535 7.63201 6.36183 8.11873C6.77404 8.31217 7.16401 8.31607 7.57701 8.12419C8.9018 7.50798 10.2329 6.90504 11.5593 6.29117C11.9564 6.10787 12.3432 6.09461 12.7395 6.28883C13.1573 6.49397 13.5798 6.69054 14 6.891C13.9944 6.93858 13.9889 6.98538 13.9833 7.03296Z" fill="#686868"/>
</svg>
