<svg width="13" height="13" viewBox="0 0 13 13" fill="none" xmlns="http://www.w3.org/2000/svg">
<path d="M6.48831 5.94828C6.29877 5.89323 6.12767 5.86498 5.97574 5.79545C4.08478 4.93499 2.19529 4.07019 0.308755 3.19814C0.190017 3.14309 0.103729 3.02068 0.00195312 2.93015C0.103729 2.85337 0.194442 2.75487 0.308018 2.70272C2.16137 1.84805 4.02062 1.00353 5.87249 0.144515C6.28181 -0.0452497 6.65941 -0.0495954 7.0702 0.140169C8.92281 0.998457 10.7821 1.84226 12.6361 2.69765C12.7586 2.75414 12.8545 2.86496 12.9629 2.95115C12.8545 3.03807 12.7578 3.15106 12.6347 3.20828C10.7703 4.06874 8.9029 4.9234 7.03333 5.77372C6.85927 5.85267 6.66678 5.89251 6.48905 5.949L6.48831 5.94828Z" fill="#B5B5B5"/>
<path d="M6.46349 12.9995C6.25847 12.9351 6.0645 12.896 5.88971 12.8163C4.043 11.9747 2.1985 11.128 0.356952 10.2755C0.223464 10.2139 0.118001 10.0944 0 10.0017C0.116526 9.90752 0.219039 9.78366 0.351052 9.72282C1.78697 9.06444 1.52959 9.04633 2.94264 9.69602C3.94196 10.1559 4.94571 10.6065 5.94281 11.0707C6.31525 11.2446 6.66704 11.2366 7.03727 11.0649C8.27923 10.4884 9.52561 9.92273 10.769 9.34981C11.1135 9.19119 11.4512 9.18177 11.7964 9.34691C12.1054 9.49467 12.4218 9.62649 12.7279 9.77859C12.8193 9.8235 12.8872 9.91331 12.9661 9.98284C12.8731 10.069 12.7957 10.1856 12.6858 10.2371C11.7123 10.6934 10.7329 11.1388 9.75498 11.5864C8.85448 11.9986 7.9562 12.4143 7.05202 12.8185C6.86617 12.9017 6.66041 12.9401 6.46276 12.9995H6.46349Z" fill="#B5B5B5"/>
<path d="M12.9845 6.53054C12.8842 6.59138 12.7891 6.66236 12.6829 6.71088C10.8067 7.57497 8.92824 8.43398 7.0535 9.30096C6.65819 9.4842 6.28502 9.47914 5.88971 9.29589C4.02678 8.43253 2.15941 7.58004 0.295739 6.7174C0.184376 6.66598 0.0980882 6.56168 0 6.48128C0.0944006 6.39799 0.176264 6.2879 0.286152 6.23647C1.82311 5.5158 1.52516 5.53463 3.00902 6.20605C3.9781 6.64425 4.94497 7.08679 5.90741 7.53875C6.29018 7.71838 6.65229 7.722 7.0358 7.54382C8.26596 6.97163 9.50201 6.41175 10.7336 5.84173C11.1024 5.67152 11.4616 5.65921 11.8296 5.83956C12.2175 6.03005 12.6099 6.21257 13 6.39871C12.9948 6.4429 12.9897 6.48635 12.9845 6.53054Z" fill="#B5B5B5"/>
</svg>
