<svg width="21" height="24" viewBox="0 0 21 24" fill="none" xmlns="http://www.w3.org/2000/svg">
<g clip-path="url(#clip0_0_3564)">
<path d="M3.66568 0C4.49745 0.11543 5.17809 0.557227 5.87123 0.979687C10.34 3.70254 14.8106 6.42188 19.2836 9.13887C20.4563 9.85078 21.0709 10.8686 20.9935 12.2344C20.9293 13.3746 20.3593 14.2471 19.377 14.8418C15.953 16.9166 12.5254 18.985 9.09655 21.0527C8.58488 21.3615 8.00895 21.2385 7.72812 20.7779C7.44016 20.3051 7.6014 19.766 8.13865 19.4408C11.5169 17.3971 14.8963 15.3545 18.2763 13.3143C18.6607 13.0822 18.9689 12.7951 19.0682 12.3416C19.2122 11.6836 18.954 11.1393 18.309 10.7467C16.5723 9.68906 14.8344 8.63438 13.0971 7.57793C10.1139 5.76387 7.13197 3.94805 4.1482 2.13516C3.41817 1.6916 2.5751 1.83984 2.14673 2.50898C2.01762 2.71113 1.97954 2.9707 1.90755 3.20684C1.8897 3.26426 1.9022 3.33105 1.9022 3.39375C1.9022 9.11191 1.9022 14.8301 1.9022 20.5482C1.9022 21.3035 2.26572 21.8338 2.91186 22.0529C3.29145 22.1818 3.63296 22.1016 3.98696 21.9428C4.2077 21.8438 4.46889 21.7646 4.7045 21.7811C5.12335 21.8104 5.41727 22.1355 5.49104 22.5428C5.55828 22.9131 5.39287 23.3145 5.02816 23.4902C4.64083 23.6766 4.22436 23.8025 3.82037 23.9543C3.7698 23.973 3.71685 23.9854 3.66449 24.0006H2.95172C2.62151 23.9016 2.26989 23.8441 1.96407 23.6953C0.664066 23.0631 0.00781631 22.0119 0.00603141 20.5822C0.000676691 16.1461 0.0042465 11.71 0.0042465 7.27383C0.0042465 5.96191 -0.0070579 4.64941 0.00722134 3.3375C0.0238805 1.89023 0.715828 0.860156 2.05153 0.267188C2.33533 0.141211 2.65186 0.0873047 2.95291 0H3.66568Z" fill="#B5B5B5"/>
</g>
<defs>
<clipPath id="clip0_0_3564">
<rect width="21" height="24" fill="white"/>
</clipPath>
</defs>
</svg>
